<?xml version="1.0" encoding="UTF-8" standalone="no"?>
<svg
   xmlns:dc="http://purl.org/dc/elements/1.1/"
   xmlns:cc="http://creativecommons.org/ns#"
   xmlns:rdf="http://www.w3.org/1999/02/22-rdf-syntax-ns#"
   xmlns:svg="http://www.w3.org/2000/svg"
   xmlns="http://www.w3.org/2000/svg"
   viewBox="0 0 1056 816"
   height="816"
   width="1056"
   xml:space="preserve"
   id="svg2"
   version="1.1"><metadata
     id="metadata8"><rdf:RDF><cc:Work
         rdf:about=""><dc:format>image/svg+xml</dc:format><dc:type
           rdf:resource="http://purl.org/dc/dcmitype/StillImage" /></cc:Work></rdf:RDF></metadata><defs
     id="defs6"><clipPath
       id="clipPath18"
       clipPathUnits="userSpaceOnUse"><path
         id="path16"
         d="M 0,612 H 792 V 0 H 0 Z" /></clipPath></defs><g
     transform="matrix(1.3333333,0,0,-1.3333333,0,816)"
     id="g10"><g
       id="g12"><g
         clip-path="url(#clipPath18)"
         id="g14"><g
           transform="translate(266.6589,425.4031)"
           id="g20"><path
             id="path22"
             style="fill:#ecbe7b;fill-opacity:1;fill-rule:evenodd;stroke:none"
             d="m 0,0 64.873,-15.544 0.025,-49.459 c -13.836,-3.716 -8.36,-17.63 0.11,-18.12 9.801,-0.562 14.966,13.763 1.893,18.041 l 0.01,48.912 11.675,-2.65 0.151,10.952 c -0.007,5.214 -0.699,5.077 8.229,8.467 29.917,11.359 65.96,11.029 95.075,-2.408 3.447,-1.591 2.649,-2.593 2.635,-6.953 -0.011,-3.312 -0.049,-6.666 0.032,-9.973 l 79.017,18.872 c -1.859,1.895 -91.276,43.247 -98.414,46.668 -3.733,1.79 -31.874,15.35 -33.285,15.489 -1.697,0.167 -59.7,-27.676 -66.174,-30.729 L 4.139,2.453 C 3.434,2.131 2.752,1.869 2.004,1.492 L 1.112,1 Z m 63.769,-110.135 c 0,5.563 0.958,9.478 2.872,11.731 1.913,2.256 5.135,3.389 9.667,3.389 4.532,0 7.753,-1.133 9.666,-3.389 1.914,-2.253 2.872,-6.168 2.872,-11.731 v -3.222 H 78.749 v 5.54 c 0,1.827 -0.176,2.992 -0.527,3.486 -0.352,0.498 -0.991,0.739 -1.914,0.739 -0.946,0 -1.584,-0.232 -1.922,-0.682 -0.344,-0.451 -0.518,-1.518 -0.518,-3.222 v -1.322 -19.981 c 0,-1.716 0.174,-2.805 0.527,-3.267 0.352,-0.461 0.991,-0.692 1.913,-0.692 0.947,0 1.584,0.24 1.923,0.737 0.342,0.495 0.518,1.683 0.518,3.54 v 1.001 6.796 h 10.097 v -5.475 c 0,-5.564 -0.958,-9.468 -2.872,-11.725 -1.913,-2.253 -5.134,-3.387 -9.666,-3.387 -4.532,0 -7.754,1.134 -9.667,3.387 -1.914,2.257 -2.872,6.161 -2.872,11.725 z m 30.233,14.527 h 9.965 v -36.49 h 10.292 v -8.579 H 94.002 Z m 33.124,-31.872 v -1.319 c 0,-1.716 0.176,-2.805 0.529,-3.267 0.352,-0.461 0.989,-0.692 1.912,-0.692 0.968,0 1.626,0.253 1.981,0.77 0.352,0.516 0.526,1.836 0.526,3.97 v 0.538 31.872 h 9.964 v -30.542 c 0,-5.562 -0.954,-9.477 -2.872,-11.734 -1.911,-2.253 -5.113,-3.387 -9.599,-3.387 -4.486,0 -7.674,1.123 -9.567,3.368 -1.891,2.242 -2.838,6.17 -2.838,11.753 v 30.542 h 9.964 z m 32.058,14.715 c 1.43,0 2.422,0.298 2.958,0.879 0.542,0.594 0.803,1.618 0.803,3.078 0,1.927 -0.243,3.235 -0.738,3.917 -0.493,0.693 -1.385,1.035 -2.668,1.035 h -1.871 v -8.909 z m -1.516,-19.333 h 1.317 c 1.563,0 2.621,0.395 3.157,1.188 0.542,0.791 0.803,2.453 0.803,4.96 0,2.014 -0.261,3.454 -0.792,4.311 -0.527,0.858 -1.396,1.287 -2.614,1.287 h -1.871 z m -9.767,-8.579 v 45.069 h 13.856 c 4.104,0 6.994,-0.901 8.688,-2.706 1.683,-1.805 2.531,-4.859 2.531,-9.182 0,-2.485 -0.242,-4.378 -0.728,-5.664 -0.482,-1.288 -1.274,-2.167 -2.374,-2.641 1.143,-0.558 1.949,-1.56 2.409,-3.012 0.46,-1.451 0.693,-3.97 0.693,-7.556 0,-5.454 -0.869,-9.204 -2.608,-11.249 -1.748,-2.036 -4.871,-3.059 -9.379,-3.059 z m 30.671,0 v 45.069 h 20.336 v -8.578 h -10.371 v -7.655 h 9.987 v -8.511 h -9.987 v -11.746 h 10.823 v -8.579 z M 23.159,-147.972 H 34.9 c 3.572,0 6.166,-0.841 7.782,-2.536 1.615,-1.692 2.428,-4.412 2.428,-8.158 v -18.275 c 0,-3.765 -0.803,-6.485 -2.41,-8.168 -1.606,-1.685 -4.209,-2.525 -7.8,-2.525 H 23.159 Z m 8.768,-7.547 v -24.568 h 1.471 c 1.093,0 1.839,0.203 2.238,0.61 0.398,0.407 0.591,1.442 0.591,3.097 v 0.998 16.125 c 0,1.655 -0.193,2.701 -0.591,3.115 -0.399,0.417 -1.145,0.623 -2.238,0.623 z m 16.773,7.547 h 8.768 v -39.662 H 48.7 Z m 13.064,0 h 11.743 c 3.782,0 6.422,-0.878 7.943,-2.631 1.51,-1.762 2.267,-4.87 2.267,-9.333 0,-3.609 -0.766,-6.155 -2.286,-7.616 -1.52,-1.461 -4.202,-2.199 -8.042,-2.199 h -2.855 v -17.883 h -8.77 z m 8.487,-15.039 h 1.587 c 1.222,0 2.071,0.288 2.528,0.86 0.466,0.581 0.696,1.684 0.696,3.329 0,1.404 -0.23,2.392 -0.707,2.993 -0.474,0.589 -1.257,0.889 -2.35,0.889 h -1.754 z m 15.039,15.039 h 8.77 v -32.115 h 9.058 v -7.547 H 85.29 Z m 27.698,-11.624 v -17.588 c 0,-1.509 0.156,-2.467 0.465,-2.874 0.311,-0.406 0.871,-0.609 1.686,-0.609 0.833,0 1.393,0.214 1.694,0.648 0.298,0.435 0.453,1.481 0.453,3.127 v 0.881 17.296 c 0,1.608 -0.155,2.633 -0.465,3.068 -0.308,0.437 -0.871,0.648 -1.682,0.648 -0.833,0 -1.394,-0.202 -1.695,-0.599 -0.3,-0.398 -0.456,-1.337 -0.456,-2.834 z m -8.884,-1.16 c 0,4.895 0.843,8.342 2.525,10.327 1.685,1.983 4.523,2.98 8.51,2.98 3.987,0 6.824,-0.997 8.507,-2.98 1.685,-1.985 2.526,-5.432 2.526,-10.327 v -14.097 c 0,-4.894 -0.841,-8.34 -2.526,-10.325 -1.683,-1.983 -4.52,-2.98 -8.507,-2.98 -3.987,0 -6.825,0.997 -8.51,2.98 -1.682,1.985 -2.525,5.431 -2.525,10.325 z m 51.74,-26.878 v 30.139 c -1.527,-1.838 -2.62,-3.756 -3.287,-5.769 -0.67,-2.013 -1.011,-4.821 -1.011,-8.41 v -2.208 -13.752 h -8.709 v 15.96 c 0,3.589 -0.336,6.397 -1.007,8.41 -0.667,2.013 -1.762,3.931 -3.291,5.769 v -30.139 h -8.768 v 39.662 h 11.682 c 1.209,-1.364 2.294,-2.922 3.262,-4.693 0.957,-1.762 1.791,-3.707 2.498,-5.827 0.637,2.062 1.44,3.986 2.418,5.767 0.971,1.79 2.071,3.37 3.302,4.753 h 11.683 v -39.662 z m 20.666,13.993 h 4.296 c -0.058,3.766 -0.26,7.114 -0.628,10.038 -0.36,2.933 -0.862,5.409 -1.501,7.435 -0.666,-2.026 -1.181,-4.502 -1.539,-7.435 -0.37,-2.924 -0.57,-6.272 -0.628,-10.038 m -8.714,-13.993 v 7.781 c 0,7.461 0.563,13.734 1.674,18.818 1.115,5.079 2.877,9.435 5.276,13.063 h 7.87 c 2.392,-3.668 4.155,-8.042 5.275,-13.123 1.122,-5.082 1.685,-11.336 1.685,-18.758 v -7.781 h -8.77 v 6.56 h -4.296 v -6.56 z m 24.97,39.662 h 11.741 c 3.574,0 6.165,-0.841 7.783,-2.536 1.618,-1.692 2.43,-4.412 2.43,-8.158 v -18.275 c 0,-3.765 -0.805,-6.485 -2.411,-8.168 -1.606,-1.685 -4.209,-2.525 -7.802,-2.525 h -11.741 z m 8.769,-7.547 v -24.568 h 1.474 c 1.092,0 1.838,0.203 2.236,0.61 0.395,0.407 0.59,1.442 0.59,3.097 v 0.998 16.125 c 0,1.655 -0.195,2.701 -0.59,3.115 -0.398,0.417 -1.144,0.623 -2.236,0.623 z m 25.252,-4.077 v -17.588 c 0,-1.509 0.157,-2.467 0.465,-2.874 0.31,-0.406 0.871,-0.609 1.684,-0.609 0.832,0 1.393,0.214 1.694,0.648 0.298,0.435 0.455,1.481 0.455,3.127 v 0.881 17.296 c 0,1.608 -0.157,2.633 -0.464,3.068 -0.311,0.437 -0.872,0.648 -1.685,0.648 -0.832,0 -1.395,-0.202 -1.694,-0.599 -0.298,-0.398 -0.455,-1.337 -0.455,-2.834 z m -8.885,-1.16 c 0,4.895 0.84,8.342 2.525,10.327 1.687,1.983 4.522,2.98 8.509,2.98 3.987,0 6.822,-0.997 8.509,-2.98 1.683,-1.985 2.525,-5.432 2.525,-10.327 v -14.097 c 0,-4.894 -0.842,-8.34 -2.525,-10.325 -1.687,-1.983 -4.522,-2.98 -8.509,-2.98 -3.987,0 -6.822,0.997 -8.509,2.98 -1.685,1.985 -2.525,5.431 -2.525,10.325 z M 101.97,-242.884 c 2.813,-17.452 34.449,-31.477 55.699,-6.182 1.018,1.211 4.928,7.035 3.976,8.924 -2.298,-0.895 -1.74,-6.562 -10.486,-13.133 -16.97,-12.747 -40.514,-4.292 -43.164,13.761 -2.238,-0.66 -3.961,-2.373 -6.025,-3.37 M -0.84,-82.555 c 7.303,1.554 11.91,15.735 13.421,24.634 1.107,6.536 0.382,11.056 -0.189,17.421 -0.768,8.566 -1.33,8.573 -4.059,15.22 -6.459,-3.121 -10.511,-17.436 -11.546,-24.97 -1.263,-9.176 -0.414,-24.024 2.373,-32.305 m 248.345,28.608 c 0,-10.873 5.403,-29.719 13.457,-31.624 2.658,4.257 4.139,24.827 3.065,32.055 -1.023,6.87 -4.737,22.997 -11.329,25.255 -1.349,-4.104 -3.179,-5.498 -3.804,-11.38 -0.469,-4.406 -1.389,-9.898 -1.389,-14.306 M -12.613,-154.406 c 3.398,0.097 8.524,5.791 10.221,7.701 9.284,10.427 15.786,30.426 14.598,45.236 -6.3,1.144 -16.721,-14.367 -19.401,-19.856 -5.409,-11.09 -7.098,-18.936 -5.418,-33.081 m 6.207,-14.067 c 0,-12.426 4.721,-36.333 14.603,-38.696 l 1.274,3.895 c 0.315,1.401 0.637,2.588 0.958,3.91 0.658,2.743 1.325,5.806 1.332,8.968 v 0.447 c 0.016,5.391 -1.3,18.221 -2.635,23.278 -1.79,6.777 -5.548,13.689 -10.324,15.844 l -1.158,-1.767 c -2.14,-4.421 -4.05,-10.783 -4.05,-15.879 m 2.66,-31.373 c -0.529,1.985 -5.966,11.89 -7.339,14.319 -6.561,11.619 -25.714,24.883 -40.977,25.373 1.038,-3.164 6.23,-11.349 8.125,-13.934 7.771,-10.599 25.092,-25.061 40.191,-25.758 m -13.142,62.232 c 0.013,7.359 0.203,11.733 -1.248,18.895 -2.697,13.318 -12.286,33.497 -23.381,37.124 -0.69,-6.536 0.255,-11.925 0.83,-18.475 0.611,-6.95 1.522,-10.794 4.344,-16.309 3.414,-6.663 12.339,-20.873 19.455,-21.235 m 4.1,-36.15 c 0.299,9.919 -5.893,24.89 -10.042,31.522 -4.644,7.423 -12.517,16.699 -24.108,18.018 0.062,-9.484 7.396,-24.145 11.374,-30.291 4.149,-6.416 13.275,-18.138 22.776,-19.249 m 284.404,-3.244 c 15.172,1.716 33.293,30.157 35.015,48.932 -11.422,-0.425 -19.866,-10.908 -24.414,-17.376 -4.341,-6.176 -10.436,-21.795 -10.601,-31.556 m -24.199,68.927 c 0.031,-19.369 12.599,-47.144 24.35,-49.691 0.414,4.07 0.97,7.315 0.844,11.219 0,9.88 -4.319,20.601 -8.584,27.203 -2.536,3.926 -4.728,7.146 -7.706,10.21 -1.353,1.389 -3.098,3.055 -4.878,4.067 -3.368,1.916 -4.034,0.941 -4.026,-3.008 m 2.232,-102.089 c 11.617,2.153 16.679,31.694 15.552,41.947 -0.383,3.507 -2.906,12.25 -4.685,14.359 -7.342,-2.763 -11.289,-15.808 -12.161,-23.997 -0.522,-4.907 -1.673,-11.688 -1.495,-16.563 0.21,-5.717 2.17,-10.335 2.789,-15.746 m 12.546,7.225 c 14.137,0.279 33.246,14.766 40.749,25.152 2.756,3.815 5.653,9.581 8.397,13.622 -11.583,2.178 -34.875,-13.272 -41.296,-24.124 z m 14.142,71.154 0.043,-9.184 c 6.717,0.268 16.465,14.605 19.736,21.007 2.787,5.452 3.77,9.001 4.525,15.971 0.604,5.546 2.158,13.503 1.018,18.679 -13.431,-4.849 -25.322,-32.058 -25.322,-46.473 m -67.712,-120.878 c 16.542,0.854 32.016,34.411 33.834,54.624 -6.089,-1.397 -19.121,-15.141 -22.904,-21.175 -7.514,-11.989 -9.845,-18.425 -10.93,-33.449 m -159.558,2.192 c -0.715,13.364 -4.26,25.078 -10.366,33.751 -3.51,4.989 -6.043,8.308 -9.828,12.109 -1.791,1.799 -9.464,8.456 -12.728,9.377 0.966,-21.106 16.429,-52.808 32.922,-55.237 m 105.413,-24.13 c 3.66,0.724 12.794,4.928 16.338,6.577 18.063,8.405 19.917,13.316 30.354,26.919 1.651,2.15 3.526,4.695 4.628,6.785 -11.329,2.061 -27.385,-8.121 -32.692,-12.695 -5.793,-4.991 -17.022,-16.454 -18.628,-27.586 m -51.551,1.532 c -1.883,11.742 -12.078,22.189 -18.183,27.709 -5.002,4.527 -21.444,15.497 -32.556,13.276 9.889,-16.261 17.654,-26.332 34.438,-34.234 2.716,-1.279 13.875,-6.497 16.301,-6.751 m 145.119,199.459 c 0.033,7.172 -4.761,18.313 -8.001,24.697 -3.016,5.942 -9.467,14.736 -14.189,18.927 -2.106,1.872 -9.489,7.832 -13.41,8.026 -2.257,-21.926 18.344,-47.132 35.6,-51.65 m 25.609,-43.122 c 2.08,0.89 3.158,4.082 4.202,6.078 4.161,7.958 5.557,16.436 4.971,25.839 -0.578,9.206 -3.991,26.799 -9.34,31.284 -2.049,-1.871 -5.578,-9.602 -6.341,-13.257 -3.113,-14.908 -2.2,-37.507 6.508,-49.944 m -287.684,3.285 c 9.376,9.985 11.617,42.532 5.031,56.623 -0.836,1.788 -2.398,5.51 -3.833,6.475 -7.608,-6.921 -12.372,-35.688 -8.247,-49.425 1.169,-3.891 2.759,-7.112 4.633,-10.56 0.903,-1.668 0.917,-2.308 2.416,-3.113 m 26.39,42.637 c 19.129,5.876 38.923,30.543 36.369,51.153 C 44.344,-20.002 37.589,-25.417 35.13,-27.64 24.512,-37.237 12.142,-58.415 12.363,-70.816 m 220.316,-167.386 c 23.189,-0.59 52.593,22.491 53.312,35.72 -15.871,1.078 -28.198,-6.586 -38.528,-16.908 -3.206,-3.203 -14.329,-15.32 -14.784,-18.812 m -207.4,2.675 c -0.748,4.4 -15.763,20.74 -20.323,24.44 -7.986,6.482 -17.895,12.729 -32.442,12.076 -0.049,-8.681 14.422,-21.088 19.721,-24.791 7.936,-5.551 20.16,-12.059 33.044,-11.725 m -30.062,132.458 c 18.453,0.984 49.911,27.109 51.579,42.174 C 30.5,-61.927 16.865,-70.664 8.339,-80.926 3.893,-86.278 -2.989,-96.177 -4.783,-103.069 m 269.54,-3.003 c -2.876,9.752 -12.809,23.442 -18.302,28.216 -7.529,6.539 -18.45,13.664 -32.699,14.608 1.903,-13.827 22.42,-30.873 33.715,-36.846 3.631,-1.92 12.435,-6.336 17.286,-5.978 m -82.294,-158.921 c 0.995,-3.918 8.85,-7.24 12.709,-8.643 11.121,-4.044 25.249,-4.854 37.145,-3.17 6.187,0.876 11.985,2.485 18.148,3.071 -2.681,7.995 -22.716,12.273 -30.675,13.108 -17.776,1.868 -21.324,-0.243 -37.327,-4.366 M 7.001,-270.474 c 1.12,-0.732 14.824,-3.137 17.326,-3.572 6.646,-1.153 13.157,-1.428 20.126,-0.89 6.715,0.517 11.798,1.231 17.658,3.347 4.659,1.681 11.537,4.911 12.985,8.151 -3.23,1.922 -12.125,3.981 -16.651,4.773 -7.473,1.304 -12.474,1.266 -20.183,0.541 -10.815,-1.019 -28.045,-5.331 -31.261,-12.35 m -31.803,32.21 c 2.292,-7.099 19.37,-12.425 28.766,-14.54 10.918,-2.46 28.377,-4.25 38.605,-0.244 -3.318,10.108 -34.488,18.197 -48.254,17.891 -2.886,-0.065 -17.179,-2.14 -19.117,-3.107 m 240.026,-17 c 6.248,-4.766 29.66,-2.382 38.23,-0.571 9.753,2.059 26.425,6.935 29.265,13.994 -1.604,1.208 -15.212,3.367 -18.181,3.527 -14.344,0.76 -45.542,-7.025 -49.314,-16.95 m -107.871,22.784 c 0.483,11.618 13.273,21.476 25.644,22.002 13.858,0.591 25.726,-9.096 24.161,-23.312 l -4.637,-2.055 c -1.998,-0.989 -3.685,-0.545 -4.744,0.696 -2.332,2.733 0.253,7.603 -0.888,11.212 -4.084,1.222 -4.905,-0.2 -6.679,-2.296 -2.415,-2.856 -12.555,-13.892 -15.781,-13.006 -1.244,2.619 2.223,11.466 3.398,14.247 3.039,7.179 6.6,7.75 4.718,11.256 -4.037,0.387 -6.224,-1.337 -8.005,-3.078 -1.668,-1.631 -2.086,-3.5 -8.275,-8.279 -1.474,-1.138 -1.3,-1.532 -2.669,-2.699 -1.153,-0.984 -1.832,-1.321 -2.921,-2.45 -1.163,-1.208 -1.769,-1.528 -3.322,-2.238 m -5.655,-8.505 c 3.656,1.345 9.272,6.68 14.455,8.647 -0.816,-7.105 -1.413,-16.531 7.712,-14.63 4.626,0.965 6.092,4.045 10.386,7.467 2.537,2.021 1.977,2.174 3.236,3.143 0.313,-0.429 0.214,-0.249 0.495,-0.999 0.079,-0.21 0.242,-0.79 0.317,-1.038 0.581,-1.918 1.276,-3.685 3.735,-4.35 3.708,-1.005 6.324,0.47 8.682,1.994 1.299,0.839 12.534,7.495 12.841,8.751 -0.068,18.072 -16.355,30.809 -35.752,27.153 -8.827,-1.662 -16.048,-6.886 -20.041,-11.755 -3.027,-3.689 -9.819,-17.169 -6.066,-24.383 m -62.542,-46.822 c 15.358,-3.531 30.598,-2.38 44.723,2.477 3.084,1.062 6.175,2.308 9.028,3.477 3.675,1.506 5.591,2.915 10.035,1.879 3.871,-0.906 16.895,-4.499 19.375,-6.157 -2.392,-1.704 -7.147,-2.866 -10.157,-4.198 -7.548,-3.33 -22.499,-11.794 -26.465,-17.277 l 6.738,-8.574 c 5.938,11.309 23.579,22.692 36.222,26.802 4.505,1.464 22.616,-10.262 28.822,-17.476 1.21,-1.407 2.428,-2.828 3.669,-4.379 1.307,-1.641 2.167,-3.345 3.719,-4.424 1.888,2.929 5.681,6.895 6.292,8.5 -2.05,3.557 -10.659,8.811 -15.225,11.732 l -16.999,8.482 c -1.137,0.658 -0.566,0.264 -1.206,0.921 4.744,1.002 14.611,5.057 19.448,5.013 2.227,-0.023 14.489,-5.46 17.712,-6.633 7.111,-2.585 12.209,-3.199 20.221,-4.049 9.401,-0.993 14.033,0.219 22.712,1.312 -0.55,5.809 -25.738,18.072 -40.937,16.701 -6.288,-0.569 -29.912,-4.993 -36.76,-7.02 -3.011,-0.891 -8.707,-3.342 -11.7,-2.443 -7.979,2.405 -13.903,4.555 -22.686,6.449 -7.898,1.701 -16.296,3.548 -24.312,4.689 -14.053,2.003 -38.222,-7.958 -42.269,-15.804 M -8.206,2.57 c 2.146,-0.27 14.607,6.267 17.57,7.634 5.751,2.65 11.567,5.454 17.321,8.159 11.819,5.553 23.222,10.994 34.974,16.475 7.197,3.355 68.401,32.719 70.031,32.714 3.391,-0.014 136.522,-65.074 139.828,-64.965 4.275,6.035 -3.806,8.303 -12.314,12.402 C 244.193,22.222 134.569,77.919 131.677,77.912 129.036,77.906 100.388,62.819 95.239,60.333 71.443,48.857 46.563,35.94 22.66,24.207 L -4.532,10.682 C -8.16,8.918 -11.409,7.203 -8.206,2.57 m 93.451,-9.615 -0.062,-67.019 c 2.32,0.095 14.944,2.247 21.879,2.725 8.101,0.559 16.351,0.731 24.611,0.581 7.906,-0.143 15.763,-0.546 23.719,-1.1 7.365,-0.518 15.812,-1.992 22.815,-2.229 l 0.102,67.048 C 161.111,-0.721 151.854,2.797 131.673,2.589 114.516,2.412 99.304,-1.269 85.245,-7.045" /></g></g></g></g></svg>