<svg width="48" height="48" viewBox="0 0 48 48" fill="none" xmlns="http://www.w3.org/2000/svg">
<path fill-rule="evenodd" clip-rule="evenodd" d="M4.8374 23.7635C4.8374 22.6892 5.70829 21.8183 6.78258 21.8183H41.7957C42.87 21.8183 43.7409 22.6892 43.7409 23.7635C43.7409 24.8378 42.87 25.7087 41.7957 25.7087H6.78258C5.70829 25.7087 4.8374 24.8378 4.8374 23.7635Z" fill="#374151"/>
<path fill-rule="evenodd" clip-rule="evenodd" d="M4.8374 12.0924C4.8374 11.0181 5.70829 10.1473 6.78258 10.1473H41.7957C42.87 10.1473 43.7409 11.0181 43.7409 12.0924C43.7409 13.1667 42.87 14.0376 41.7957 14.0376H6.78258C5.70829 14.0376 4.8374 13.1667 4.8374 12.0924Z" fill="#374151"/>
<path fill-rule="evenodd" clip-rule="evenodd" d="M4.8374 35.4346C4.8374 34.3603 5.70829 33.4894 6.78258 33.4894H41.7957C42.87 33.4894 43.7409 34.3603 43.7409 35.4346C43.7409 36.5088 42.87 37.3797 41.7957 37.3797H6.78258C5.70829 37.3797 4.8374 36.5088 4.8374 35.4346Z" fill="#374151"/>
</svg>
