<svg width="31" height="43" viewBox="0 0 31 43" fill="none" xmlns="http://www.w3.org/2000/svg">
<path fill-rule="evenodd" clip-rule="evenodd" d="M18.1941 0.274736C19.1066 0.580913 19.7271 1.48169 19.7271 2.50011V14.1667H28.4947C29.3121 14.1667 30.0615 14.6507 30.4389 15.4224C30.8164 16.1941 30.7592 17.1253 30.2903 17.8381L14.9471 41.1712C14.3985 42.0056 13.4049 42.3647 12.4924 42.0585C11.58 41.7524 10.9595 40.8515 10.9595 39.8332V28.1667H2.1919C1.37461 28.1667 0.625173 27.6825 0.247728 26.9109C-0.129695 26.139 -0.072465 25.208 0.396229 24.4952L15.7396 1.16205C16.2882 0.327725 17.2818 -0.0314373 18.1941 0.274736Z" fill="#FE5000"/>
</svg>
