<svg width="42" height="36" viewBox="0 0 42 36" fill="none" xmlns="http://www.w3.org/2000/svg">
<path d="M2.625 0C1.17526 0 0 1.21199 0 2.70703C0 4.20207 1.17526 5.41406 2.625 5.41406H5.82545L6.62754 8.7227C6.63597 8.76095 6.64518 8.7989 6.65516 8.83653L10.2179 23.5328L7.87487 25.949C4.56755 29.3596 6.90991 35.1914 11.5872 35.1914H34.125C35.5745 35.1914 36.75 33.9795 36.75 32.4844C36.75 30.9893 35.5745 29.7773 34.125 29.7773H11.5872L14.2122 27.0703H31.5C32.4943 27.0703 33.4031 26.491 33.8478 25.5739L41.7228 9.3317C42.1297 8.49257 42.0863 7.49601 41.6081 6.69792C41.1295 5.89984 40.2848 5.41406 39.375 5.41406H11.237L10.4216 2.05047C10.1295 0.845405 9.07953 0 7.875 0H2.625Z" fill="#FE5000"/>
</svg>
